<?xml version="1.0" encoding="UTF-8" standalone="no"?>
<!DOCTYPE svg PUBLIC "-//W3C//DTD SVG 1.1//EN" "http://www.w3.org/Graphics/SVG/1.1/DTD/svg11.dtd">
<svg width="100%" height="100%" viewBox="0 0 241 241" version="1.1" xmlns="http://www.w3.org/2000/svg" xmlns:xlink="http://www.w3.org/1999/xlink" xml:space="preserve" xmlns:serif="http://www.serif.com/" style="fill-rule:evenodd;clip-rule:evenodd;stroke-linejoin:round;stroke-miterlimit:2;">
    <g transform="matrix(1,0,0,1,-135.401,-29.2104)">
        <g>
            <g>
                <path d="M375.435,89.219L375.435,209.235C375.435,242.355 348.546,269.244 315.426,269.244L255.4,269.244L255.4,29.21L315.426,29.21C348.546,29.21 375.435,56.099 375.435,89.219Z" style="fill:rgb(37,65,133);"/>
                <path d="M255.4,29.21L255.4,269.244L195.41,269.244C162.29,269.244 135.401,242.355 135.401,209.235L135.401,89.219C135.401,56.099 162.29,29.21 195.41,29.21L255.4,29.21Z" style="fill:rgb(206,58,43);"/>
            </g>
            <g transform="matrix(0.599992,0,0,0.599992,15.4212,-150.769)">
                <path d="M428.522,366.667L428.522,393.333L485.565,393.333L485.565,446.667L371.478,446.667L368.912,446.88C365.623,447.437 362.648,449.055 360.507,451.453C358.365,453.85 357.19,456.877 357.19,460C357.19,463.123 358.365,466.15 360.507,468.547C362.648,470.945 365.623,472.563 368.912,473.12L371.478,473.333L428.522,473.333L433.198,473.467C451.698,474.562 469.015,482.348 481.478,495.177C493.94,508.005 500.57,524.867 499.962,542.188C499.353,559.51 491.555,575.928 478.22,587.963C464.882,600.002 447.058,606.71 428.522,606.667L428.522,633.333L371.478,633.333L371.478,606.667L314.435,606.667L314.435,553.333L428.522,553.333L431.088,553.12C434.377,552.563 437.352,550.945 439.493,548.547C441.635,546.15 442.81,543.123 442.81,540C442.81,536.877 441.635,533.85 439.493,531.453C437.352,529.055 434.377,527.437 431.088,526.88L428.522,526.667L371.478,526.667L366.802,526.533C348.302,525.438 330.985,517.652 318.522,504.823C306.06,491.995 299.43,475.133 300.038,457.812C300.647,440.49 308.445,424.072 321.78,412.037C335.118,399.998 352.942,393.29 371.478,393.333L371.478,366.667L428.522,366.667Z" style="fill:white;"/>
            </g>
        </g>
    </g>
</svg>
