<?xml version="1.0" encoding="UTF-8" standalone="no"?>
<!DOCTYPE svg PUBLIC "-//W3C//DTD SVG 1.1//EN" "http://www.w3.org/Graphics/SVG/1.1/DTD/svg11.dtd">
<svg width="100%" height="100%" viewBox="0 0 241 241" version="1.1" xmlns="http://www.w3.org/2000/svg" xmlns:xlink="http://www.w3.org/1999/xlink" xml:space="preserve" xmlns:serif="http://www.serif.com/" style="fill-rule:evenodd;clip-rule:evenodd;stroke-linejoin:round;stroke-miterlimit:2;">
    <g transform="matrix(1,0,0,1,-135.401,-29.2104)">
        <g>
            <g>
                <path d="M375.435,89.219L375.435,209.235C375.435,242.355 348.546,269.244 315.426,269.244L295.4,269.244L315.4,149.2L195.4,149.227L215.4,29.21L315.426,29.21C348.546,29.21 375.435,56.099 375.435,89.219Z" style="fill:rgb(37,65,133);"/>
                <path d="M215.4,29.21L195.4,149.2L315.4,149.2L295.4,269.244L195.41,269.244C162.29,269.244 135.401,242.355 135.401,209.235L135.401,89.219C135.401,56.099 162.29,29.21 195.41,29.21L215.4,29.21Z" style="fill:rgb(206,58,43);"/>
            </g>
            <path d="M289.154,269.244L271.426,233.103L227.17,251.712L214.616,221.857C214.616,221.857 297.606,186.961 297.606,186.961L299.993,185.716L300.216,185.574C303.802,183.297 306.475,179.912 307.806,176.039C309.193,172.004 309.049,167.695 307.442,163.872C305.834,160.05 302.856,156.933 299.002,155.101C295.303,153.343 291.015,152.885 286.879,153.855L286.621,153.915L284.062,154.75L239.649,173.424L236.153,174.778C222.961,179.406 208.643,179.074 196.222,173.797C183.967,168.588 174.526,158.951 169.945,146.887C165.358,134.809 166.01,121.276 171.696,109.153C177.47,96.841 187.956,86.951 200.902,81.543L206.683,79.128L183.621,30.37C187.433,29.609 191.375,29.21 195.41,29.21L221.682,29.21C226.552,39.139 239.411,65.351 239.411,65.351L283.667,46.743L296.22,76.598C296.22,76.598 213.23,111.493 213.23,111.493L210.844,112.738L210.62,112.88C207.034,115.157 204.361,118.542 203.03,122.415C201.643,126.451 201.787,130.759 203.395,134.582C205.002,138.405 207.98,141.522 211.834,143.353C215.533,145.111 219.822,145.569 223.957,144.599L224.215,144.539L226.774,143.704L271.187,125.03L274.683,123.676C287.875,119.049 302.193,119.38 314.614,124.657C326.869,129.866 336.31,139.503 340.891,151.568C345.478,163.646 344.826,177.179 339.141,189.301C333.366,201.614 322.88,211.503 309.934,216.911L304.153,219.326L327.215,268.084C323.403,268.845 319.461,269.244 315.426,269.244L289.154,269.244Z" style="fill:white;"/>
        </g>
    </g>
</svg>
